<svg width="349" height="49" viewBox="0 0 349 49" fill="none" xmlns="http://www.w3.org/2000/svg">
<path d="M0.56 2.672H7.52V38H0.56V2.672ZM22.3501 38.432C20.6221 38.432 19.0061 38.128 17.5021 37.52C16.0301 36.912 14.7821 36.064 13.7581 34.976L16.5421 31.28C17.5661 32.208 18.5101 32.88 19.3741 33.296C20.2701 33.68 21.0701 33.872 21.7741 33.872C22.3181 33.872 22.7981 33.824 23.2141 33.728C23.6621 33.6 24.0141 33.424 24.2701 33.2C24.5261 32.944 24.6541 32.624 24.6541 32.24C24.6541 31.696 24.4301 31.264 23.9821 30.944C23.5661 30.624 23.0221 30.368 22.3501 30.176C21.6781 29.952 20.9581 29.728 20.1901 29.504C18.2701 28.896 16.8781 28.016 16.0141 26.864C15.1821 25.68 14.7661 24.4 14.7661 23.024C14.7661 21.968 15.0381 20.912 15.5821 19.856C16.1581 18.768 17.0541 17.872 18.2701 17.168C19.5181 16.432 21.1181 16.064 23.0701 16.064C24.8301 16.064 26.3181 16.24 27.5341 16.592C28.7501 16.944 29.9021 17.52 30.9901 18.32L28.4461 22.256C27.8381 21.776 27.1501 21.376 26.3821 21.056C25.6461 20.704 24.9581 20.512 24.3181 20.48C23.7421 20.448 23.2461 20.512 22.8301 20.672C22.4461 20.832 22.1421 21.04 21.9181 21.296C21.6941 21.552 21.5821 21.824 21.5821 22.112C21.5501 22.72 21.7741 23.2 22.2541 23.552C22.7661 23.904 23.4061 24.176 24.1741 24.368C24.9421 24.56 25.6941 24.784 26.4301 25.04C27.4541 25.36 28.3341 25.792 29.0701 26.336C29.8061 26.88 30.3661 27.536 30.7501 28.304C31.1661 29.04 31.3741 29.936 31.3741 30.992C31.3741 32.272 31.0381 33.488 30.3661 34.64C29.7261 35.76 28.7341 36.672 27.3901 37.376C26.0781 38.08 24.3981 38.432 22.3501 38.432ZM45.8349 38.576C43.8829 38.576 42.1069 38.192 40.5069 37.424C38.9389 36.624 37.6909 35.408 36.7629 33.776C35.8349 32.144 35.3709 30.064 35.3709 27.536C35.3709 25.168 35.8509 23.12 36.8109 21.392C37.7709 19.664 39.0349 18.336 40.6029 17.408C42.1709 16.448 43.8349 15.968 45.5949 15.968C47.6749 15.968 49.2429 16.32 50.2989 17.024C51.3869 17.696 52.2829 18.448 52.9869 19.28L52.6989 20.096L53.3229 17.024H59.5629V38H52.8429V33.44L53.3709 34.88C53.3069 34.88 53.1149 35.072 52.7949 35.456C52.4749 35.808 51.9949 36.24 51.3549 36.752C50.7469 37.232 49.9789 37.648 49.0509 38C48.1549 38.384 47.0829 38.576 45.8349 38.576ZM47.7549 33.104C48.5549 33.104 49.2749 32.992 49.9149 32.768C50.5549 32.512 51.1149 32.16 51.5949 31.712C52.0749 31.232 52.4909 30.64 52.8429 29.936V24.8C52.5869 24.096 52.2029 23.504 51.6909 23.024C51.1789 22.512 50.5709 22.128 49.8669 21.872C49.1629 21.584 48.3789 21.44 47.5149 21.44C46.5549 21.44 45.6589 21.696 44.8269 22.208C44.0269 22.688 43.3869 23.36 42.9069 24.224C42.4269 25.088 42.1869 26.08 42.1869 27.2C42.1869 28.32 42.4429 29.328 42.9549 30.224C43.4669 31.12 44.1389 31.824 44.9709 32.336C45.8349 32.848 46.7629 33.104 47.7549 33.104ZM74.8393 38.576C73.0473 38.576 71.3833 38.144 69.8473 37.28C68.3433 36.416 67.1273 35.168 66.1992 33.536C65.3033 31.872 64.8553 29.856 64.8553 27.488C64.8553 25.088 65.3673 23.04 66.3913 21.344C67.4153 19.616 68.7433 18.288 70.3753 17.36C72.0393 16.432 73.8313 15.968 75.7513 15.968C77.5433 15.968 79.0313 16.272 80.2153 16.88C81.3993 17.456 82.4393 18.224 83.3353 19.184L82.8073 20.624V16.544H89.5273V48.08H82.8553V33.92L82.9513 36.08C82.1193 36.784 80.9993 37.376 79.5913 37.856C78.2153 38.336 76.6313 38.576 74.8393 38.576ZM77.2393 33.296C78.1353 33.296 78.9513 33.168 79.6873 32.912C80.4553 32.624 81.0953 32.224 81.6073 31.712C82.1513 31.2 82.5513 30.608 82.8073 29.936V24.8C82.4233 24.096 81.9593 23.52 81.4153 23.072C80.9033 22.592 80.2953 22.24 79.5913 22.016C78.9193 21.76 78.1353 21.632 77.2393 21.632C76.2473 21.632 75.3193 21.888 74.4553 22.4C73.6233 22.912 72.9513 23.616 72.4393 24.512C71.9273 25.408 71.6713 26.416 71.6713 27.536C71.6713 28.656 71.9273 29.648 72.4393 30.512C72.9513 31.376 73.6233 32.064 74.4553 32.576C75.3193 33.056 76.2473 33.296 77.2393 33.296ZM103.208 39.008C101.32 39.008 99.7364 38.432 98.4564 37.28C97.1764 36.096 96.5044 34.576 96.4404 32.72V17.024H103.16V30.224C103.224 31.152 103.464 31.904 103.88 32.48C104.296 33.024 105 33.296 105.992 33.296C106.984 33.296 107.832 32.96 108.536 32.288C109.272 31.616 109.832 30.704 110.216 29.552C110.632 28.368 110.84 27.04 110.84 25.568V17.024H117.56V38H111.464L110.936 34.16L111.032 34.592C110.552 35.456 109.944 36.224 109.208 36.896C108.472 37.568 107.592 38.08 106.568 38.432C105.576 38.816 104.456 39.008 103.208 39.008ZM134.792 38.576C132.232 38.576 130.056 38.096 128.264 37.136C126.504 36.176 125.16 34.848 124.232 33.152C123.304 31.456 122.84 29.504 122.84 27.296C122.84 25.184 123.384 23.28 124.472 21.584C125.56 19.888 127.016 18.544 128.84 17.552C130.664 16.528 132.696 16.016 134.936 16.016C137.944 16.016 140.408 16.896 142.328 18.656C144.28 20.384 145.544 22.896 146.12 26.192L129.8 31.376L128.312 27.728L140.12 23.744L138.728 24.368C138.472 23.536 138.008 22.816 137.336 22.208C136.696 21.568 135.72 21.248 134.408 21.248C133.416 21.248 132.536 21.488 131.768 21.968C131.032 22.416 130.456 23.072 130.04 23.936C129.656 24.768 129.464 25.76 129.464 26.912C129.464 28.224 129.704 29.328 130.184 30.224C130.664 31.088 131.32 31.744 132.152 32.192C132.984 32.64 133.912 32.864 134.936 32.864C135.672 32.864 136.376 32.736 137.048 32.48C137.752 32.224 138.44 31.888 139.112 31.472L142.088 36.464C140.968 37.104 139.752 37.616 138.44 38C137.16 38.384 135.944 38.576 134.792 38.576ZM178.084 2.672C181.764 2.672 184.692 3.424 186.868 4.928C189.044 6.4 190.132 8.608 190.132 11.552C190.132 13.728 189.588 15.552 188.5 17.024C187.444 18.464 185.988 19.552 184.132 20.288C182.308 20.992 180.212 21.344 177.844 21.344L176.74 17.6C179.652 17.6 182.228 18 184.468 18.8C186.74 19.6 188.532 20.752 189.844 22.256C191.156 23.728 191.812 25.504 191.812 27.584C191.812 29.504 191.46 31.136 190.756 32.48C190.084 33.792 189.156 34.864 187.972 35.696C186.82 36.496 185.508 37.088 184.036 37.472C182.564 37.824 181.044 38 179.476 38H167.716V2.672H178.084ZM178.9 17.12C180.276 17.12 181.284 16.704 181.924 15.872C182.596 15.04 182.932 14.096 182.932 13.04C182.932 11.824 182.516 10.912 181.684 10.304C180.884 9.696 179.796 9.392 178.42 9.392H174.676V17.12H178.9ZM179.14 31.52C180.164 31.52 181.092 31.392 181.924 31.136C182.756 30.848 183.412 30.416 183.892 29.84C184.372 29.232 184.612 28.48 184.612 27.584C184.612 26.56 184.324 25.792 183.748 25.28C183.172 24.736 182.42 24.368 181.492 24.176C180.596 23.952 179.652 23.84 178.66 23.84H174.676V31.52H179.14ZM206.522 38.576C204.57 38.576 202.794 38.192 201.194 37.424C199.626 36.624 198.378 35.408 197.45 33.776C196.522 32.144 196.058 30.064 196.058 27.536C196.058 25.168 196.538 23.12 197.498 21.392C198.458 19.664 199.722 18.336 201.29 17.408C202.858 16.448 204.522 15.968 206.282 15.968C208.362 15.968 209.93 16.32 210.986 17.024C212.074 17.696 212.97 18.448 213.674 19.28L213.386 20.096L214.01 17.024H220.25V38H213.53V33.44L214.058 34.88C213.994 34.88 213.802 35.072 213.482 35.456C213.162 35.808 212.682 36.24 212.042 36.752C211.434 37.232 210.666 37.648 209.738 38C208.842 38.384 207.77 38.576 206.522 38.576ZM208.442 33.104C209.242 33.104 209.962 32.992 210.602 32.768C211.242 32.512 211.802 32.16 212.282 31.712C212.762 31.232 213.178 30.64 213.53 29.936V24.8C213.274 24.096 212.89 23.504 212.378 23.024C211.866 22.512 211.258 22.128 210.554 21.872C209.85 21.584 209.066 21.44 208.202 21.44C207.242 21.44 206.346 21.696 205.514 22.208C204.714 22.688 204.074 23.36 203.594 24.224C203.114 25.088 202.874 26.08 202.874 27.2C202.874 28.32 203.13 29.328 203.642 30.224C204.154 31.12 204.826 31.824 205.658 32.336C206.522 32.848 207.45 33.104 208.442 33.104ZM233.223 17.024L233.847 22.784L233.703 21.92C234.311 20.672 235.143 19.616 236.199 18.752C237.255 17.856 238.295 17.168 239.319 16.688C240.375 16.208 241.175 15.968 241.719 15.968L241.383 22.688C239.815 22.496 238.471 22.752 237.351 23.456C236.231 24.16 235.367 25.088 234.759 26.24C234.151 27.392 233.847 28.576 233.847 29.792V38H227.175V17.024H233.223ZM260.638 38.576C258.878 38.576 257.39 38.288 256.174 37.712C254.99 37.104 253.95 36.32 253.054 35.36L253.582 33.92V38H246.862V0.127998H253.534V20.624V18.464C254.366 17.76 255.47 17.168 256.846 16.688C258.222 16.208 259.79 15.968 261.55 15.968C263.374 15.968 265.038 16.4 266.542 17.264C268.046 18.128 269.246 19.392 270.142 21.056C271.07 22.688 271.534 24.688 271.534 27.056C271.534 29.424 271.022 31.472 269.998 33.2C269.006 34.928 267.678 36.256 266.014 37.184C264.35 38.112 262.558 38.576 260.638 38.576ZM259.15 32.912C260.142 32.912 261.054 32.656 261.886 32.144C262.75 31.632 263.438 30.928 263.95 30.032C264.462 29.136 264.718 28.128 264.718 27.008C264.718 25.888 264.462 24.896 263.95 24.032C263.438 23.168 262.75 22.496 261.886 22.016C261.054 21.504 260.142 21.248 259.15 21.248C258.286 21.248 257.47 21.392 256.702 21.68C255.966 21.936 255.326 22.32 254.782 22.832C254.27 23.312 253.87 23.904 253.582 24.608V29.744C253.966 30.448 254.414 31.04 254.926 31.52C255.47 31.968 256.094 32.32 256.798 32.576C257.502 32.8 258.286 32.912 259.15 32.912ZM275.183 27.248C275.183 25.104 275.679 23.184 276.671 21.488C277.695 19.792 279.119 18.464 280.943 17.504C282.767 16.512 284.863 16.016 287.231 16.016C289.631 16.016 291.711 16.512 293.471 17.504C295.231 18.464 296.575 19.792 297.503 21.488C298.463 23.184 298.943 25.104 298.943 27.248C298.943 29.392 298.463 31.328 297.503 33.056C296.575 34.752 295.231 36.096 293.471 37.088C291.711 38.08 289.599 38.576 287.135 38.576C284.831 38.576 282.767 38.128 280.943 37.232C279.151 36.336 277.743 35.04 276.719 33.344C275.695 31.648 275.183 29.616 275.183 27.248ZM281.951 27.296C281.951 28.384 282.175 29.376 282.623 30.272C283.071 31.136 283.679 31.824 284.447 32.336C285.215 32.848 286.079 33.104 287.039 33.104C288.095 33.104 289.007 32.848 289.775 32.336C290.543 31.824 291.135 31.136 291.551 30.272C291.967 29.376 292.175 28.384 292.175 27.296C292.175 26.176 291.967 25.184 291.551 24.32C291.135 23.456 290.543 22.768 289.775 22.256C289.007 21.744 288.095 21.488 287.039 21.488C286.079 21.488 285.215 21.744 284.447 22.256C283.679 22.768 283.071 23.456 282.623 24.32C282.175 25.184 281.951 26.176 281.951 27.296ZM311.053 38.432C309.325 38.432 307.709 38.128 306.205 37.52C304.733 36.912 303.485 36.064 302.461 34.976L305.245 31.28C306.269 32.208 307.213 32.88 308.077 33.296C308.973 33.68 309.773 33.872 310.477 33.872C311.021 33.872 311.501 33.824 311.917 33.728C312.365 33.6 312.717 33.424 312.973 33.2C313.229 32.944 313.357 32.624 313.357 32.24C313.357 31.696 313.133 31.264 312.685 30.944C312.269 30.624 311.725 30.368 311.053 30.176C310.381 29.952 309.661 29.728 308.893 29.504C306.973 28.896 305.581 28.016 304.717 26.864C303.885 25.68 303.469 24.4 303.469 23.024C303.469 21.968 303.741 20.912 304.285 19.856C304.861 18.768 305.757 17.872 306.973 17.168C308.221 16.432 309.821 16.064 311.773 16.064C313.533 16.064 315.021 16.24 316.237 16.592C317.453 16.944 318.605 17.52 319.693 18.32L317.149 22.256C316.541 21.776 315.853 21.376 315.085 21.056C314.349 20.704 313.661 20.512 313.021 20.48C312.445 20.448 311.949 20.512 311.533 20.672C311.149 20.832 310.845 21.04 310.621 21.296C310.397 21.552 310.285 21.824 310.285 22.112C310.253 22.72 310.477 23.2 310.957 23.552C311.469 23.904 312.109 24.176 312.877 24.368C313.645 24.56 314.397 24.784 315.133 25.04C316.157 25.36 317.037 25.792 317.773 26.336C318.509 26.88 319.069 27.536 319.453 28.304C319.869 29.04 320.077 29.936 320.077 30.992C320.077 32.272 319.741 33.488 319.069 34.64C318.429 35.76 317.437 36.672 316.093 37.376C314.781 38.08 313.101 38.432 311.053 38.432ZM334.538 38.576C332.586 38.576 330.81 38.192 329.21 37.424C327.642 36.624 326.394 35.408 325.466 33.776C324.538 32.144 324.074 30.064 324.074 27.536C324.074 25.168 324.554 23.12 325.514 21.392C326.474 19.664 327.738 18.336 329.306 17.408C330.874 16.448 332.538 15.968 334.298 15.968C336.378 15.968 337.946 16.32 339.002 17.024C340.09 17.696 340.986 18.448 341.69 19.28L341.402 20.096L342.026 17.024H348.266V38H341.546V33.44L342.074 34.88C342.01 34.88 341.818 35.072 341.498 35.456C341.178 35.808 340.698 36.24 340.058 36.752C339.45 37.232 338.682 37.648 337.754 38C336.858 38.384 335.786 38.576 334.538 38.576ZM336.458 33.104C337.258 33.104 337.978 32.992 338.618 32.768C339.258 32.512 339.818 32.16 340.298 31.712C340.778 31.232 341.194 30.64 341.546 29.936V24.8C341.29 24.096 340.906 23.504 340.394 23.024C339.882 22.512 339.274 22.128 338.57 21.872C337.866 21.584 337.082 21.44 336.218 21.44C335.258 21.44 334.362 21.696 333.53 22.208C332.73 22.688 332.09 23.36 331.61 24.224C331.13 25.088 330.89 26.08 330.89 27.2C330.89 28.32 331.146 29.328 331.658 30.224C332.17 31.12 332.842 31.824 333.674 32.336C334.538 32.848 335.466 33.104 336.458 33.104Z" fill="#171717"/>
</svg>
